<mxfile host="app.diagrams.net" modified="2022-04-24T07:01:13.242Z" agent="5.0 (Windows NT 10.0; Win64; x64) AppleWebKit/537.36 (KHTML, like Gecko) Chrome/100.0.4896.127 Safari/537.36" etag="tbFY1E2e_HSmoR4voQBM" version="17.4.6" type="github">
  <diagram id="5z2am0oEy75ZVv1c8yw6" name="Page-1">
    <mxGraphModel dx="1488" dy="802" grid="1" gridSize="10" guides="1" tooltips="1" connect="1" arrows="1" fold="1" page="1" pageScale="1" pageWidth="850" pageHeight="1100" math="0" shadow="0">
      <root>
        <mxCell id="0" />
        <mxCell id="1" parent="0" />
        <mxCell id="N56nYuVymO4PZKrSNJSE-1" value="&lt;font style=&quot;font-size: 23px&quot;&gt;25&lt;/font&gt;" style="ellipse;whiteSpace=wrap;html=1;aspect=fixed;fontSize=12;" vertex="1" parent="1">
          <mxGeometry x="290" y="460" width="60" height="60" as="geometry" />
        </mxCell>
        <mxCell id="N56nYuVymO4PZKrSNJSE-2" value="&lt;font style=&quot;font-size: 23px&quot;&gt;17&lt;/font&gt;" style="ellipse;whiteSpace=wrap;html=1;aspect=fixed;fontSize=12;" vertex="1" parent="1">
          <mxGeometry x="220" y="550" width="60" height="60" as="geometry" />
        </mxCell>
        <mxCell id="N56nYuVymO4PZKrSNJSE-3" value="&lt;font&gt;&lt;font style=&quot;font-size: 23px&quot;&gt;18&lt;/font&gt;&lt;br&gt;&lt;/font&gt;" style="ellipse;whiteSpace=wrap;html=1;aspect=fixed;fontSize=12;" vertex="1" parent="1">
          <mxGeometry x="355" y="550" width="60" height="60" as="geometry" />
        </mxCell>
        <mxCell id="N56nYuVymO4PZKrSNJSE-4" value="&lt;font style=&quot;font-size: 23px&quot;&gt;12&lt;/font&gt;" style="ellipse;whiteSpace=wrap;html=1;aspect=fixed;fontSize=12;" vertex="1" parent="1">
          <mxGeometry x="160" y="640" width="60" height="60" as="geometry" />
        </mxCell>
        <mxCell id="N56nYuVymO4PZKrSNJSE-5" value="&lt;font style=&quot;font-size: 23px&quot;&gt;14&lt;/font&gt;" style="ellipse;whiteSpace=wrap;html=1;aspect=fixed;fontSize=12;" vertex="1" parent="1">
          <mxGeometry x="250" y="640" width="60" height="60" as="geometry" />
        </mxCell>
        <mxCell id="N56nYuVymO4PZKrSNJSE-6" value="" style="endArrow=none;html=1;rounded=0;fontSize=23;entryX=0.5;entryY=1;entryDx=0;entryDy=0;" edge="1" parent="1" target="N56nYuVymO4PZKrSNJSE-1">
          <mxGeometry width="50" height="50" relative="1" as="geometry">
            <mxPoint x="390" y="550" as="sourcePoint" />
            <mxPoint x="440" y="500" as="targetPoint" />
          </mxGeometry>
        </mxCell>
        <mxCell id="N56nYuVymO4PZKrSNJSE-7" value="" style="endArrow=none;html=1;rounded=0;fontSize=23;entryX=0.348;entryY=0.993;entryDx=0;entryDy=0;exitX=1;exitY=0;exitDx=0;exitDy=0;entryPerimeter=0;" edge="1" parent="1" source="N56nYuVymO4PZKrSNJSE-2" target="N56nYuVymO4PZKrSNJSE-1">
          <mxGeometry width="50" height="50" relative="1" as="geometry">
            <mxPoint x="400" y="560" as="sourcePoint" />
            <mxPoint x="330" y="530" as="targetPoint" />
          </mxGeometry>
        </mxCell>
        <mxCell id="N56nYuVymO4PZKrSNJSE-8" value="" style="endArrow=none;html=1;rounded=0;fontSize=23;entryX=0.285;entryY=0.937;entryDx=0;entryDy=0;exitX=1;exitY=0;exitDx=0;exitDy=0;entryPerimeter=0;" edge="1" parent="1" target="N56nYuVymO4PZKrSNJSE-2">
          <mxGeometry width="50" height="50" relative="1" as="geometry">
            <mxPoint x="200.21320343559637" y="642.7867965644034" as="sourcePoint" />
            <mxPoint x="239.87999999999988" y="603.58" as="targetPoint" />
          </mxGeometry>
        </mxCell>
        <mxCell id="N56nYuVymO4PZKrSNJSE-9" value="" style="endArrow=none;html=1;rounded=0;fontSize=23;entryX=0.5;entryY=1;entryDx=0;entryDy=0;exitX=0.5;exitY=0;exitDx=0;exitDy=0;" edge="1" parent="1" source="N56nYuVymO4PZKrSNJSE-5">
          <mxGeometry width="50" height="50" relative="1" as="geometry">
            <mxPoint x="330" y="640" as="sourcePoint" />
            <mxPoint x="260" y="610" as="targetPoint" />
          </mxGeometry>
        </mxCell>
        <mxCell id="N56nYuVymO4PZKrSNJSE-10" value="&lt;font style=&quot;font-size: 23px&quot;&gt;15&lt;br&gt;&lt;/font&gt;" style="ellipse;whiteSpace=wrap;html=1;aspect=fixed;fontSize=12;" vertex="1" parent="1">
          <mxGeometry x="334" y="640.42" width="60" height="60" as="geometry" />
        </mxCell>
        <mxCell id="N56nYuVymO4PZKrSNJSE-11" value="" style="endArrow=none;html=1;rounded=0;fontSize=23;entryX=0.5;entryY=1;entryDx=0;entryDy=0;exitX=0.5;exitY=0;exitDx=0;exitDy=0;" edge="1" parent="1" source="N56nYuVymO4PZKrSNJSE-10" target="N56nYuVymO4PZKrSNJSE-3">
          <mxGeometry width="50" height="50" relative="1" as="geometry">
            <mxPoint x="514" y="650.42" as="sourcePoint" />
            <mxPoint x="424.8800000000001" y="610" as="targetPoint" />
          </mxGeometry>
        </mxCell>
        <mxCell id="N56nYuVymO4PZKrSNJSE-12" value="&lt;font style=&quot;font-size: 23px&quot;&gt;16&lt;/font&gt;" style="ellipse;whiteSpace=wrap;html=1;aspect=fixed;fontSize=12;" vertex="1" parent="1">
          <mxGeometry x="415" y="640.42" width="60" height="60" as="geometry" />
        </mxCell>
        <mxCell id="N56nYuVymO4PZKrSNJSE-13" value="" style="endArrow=none;html=1;rounded=0;fontSize=23;entryX=0.5;entryY=1;entryDx=0;entryDy=0;" edge="1" parent="1" source="N56nYuVymO4PZKrSNJSE-12">
          <mxGeometry width="50" height="50" relative="1" as="geometry">
            <mxPoint x="474" y="630" as="sourcePoint" />
            <mxPoint x="404" y="600" as="targetPoint" />
          </mxGeometry>
        </mxCell>
        <mxCell id="N56nYuVymO4PZKrSNJSE-14" value="&lt;font style=&quot;font-size: 23px&quot;&gt;16&lt;/font&gt;" style="ellipse;whiteSpace=wrap;html=1;aspect=fixed;fontSize=12;" vertex="1" parent="1">
          <mxGeometry x="640" y="459.58" width="60" height="60" as="geometry" />
        </mxCell>
        <mxCell id="N56nYuVymO4PZKrSNJSE-15" value="&lt;font style=&quot;font-size: 23px&quot;&gt;17&lt;/font&gt;" style="ellipse;whiteSpace=wrap;html=1;aspect=fixed;fontSize=12;" vertex="1" parent="1">
          <mxGeometry x="570" y="549.58" width="60" height="60" as="geometry" />
        </mxCell>
        <mxCell id="N56nYuVymO4PZKrSNJSE-16" value="&lt;font&gt;&lt;font style=&quot;font-size: 23px&quot;&gt;18&lt;/font&gt;&lt;br&gt;&lt;/font&gt;" style="ellipse;whiteSpace=wrap;html=1;aspect=fixed;fontSize=12;" vertex="1" parent="1">
          <mxGeometry x="705" y="549.58" width="60" height="60" as="geometry" />
        </mxCell>
        <mxCell id="N56nYuVymO4PZKrSNJSE-17" value="&lt;font style=&quot;font-size: 23px&quot;&gt;12&lt;/font&gt;" style="ellipse;whiteSpace=wrap;html=1;aspect=fixed;fontSize=12;" vertex="1" parent="1">
          <mxGeometry x="510" y="639.58" width="60" height="60" as="geometry" />
        </mxCell>
        <mxCell id="N56nYuVymO4PZKrSNJSE-18" value="&lt;font style=&quot;font-size: 23px&quot;&gt;14&lt;/font&gt;" style="ellipse;whiteSpace=wrap;html=1;aspect=fixed;fontSize=12;" vertex="1" parent="1">
          <mxGeometry x="600" y="639.58" width="60" height="60" as="geometry" />
        </mxCell>
        <mxCell id="N56nYuVymO4PZKrSNJSE-19" value="" style="endArrow=none;html=1;rounded=0;fontSize=23;entryX=0.5;entryY=1;entryDx=0;entryDy=0;" edge="1" parent="1" target="N56nYuVymO4PZKrSNJSE-14">
          <mxGeometry width="50" height="50" relative="1" as="geometry">
            <mxPoint x="740" y="549.58" as="sourcePoint" />
            <mxPoint x="790" y="499.58" as="targetPoint" />
          </mxGeometry>
        </mxCell>
        <mxCell id="N56nYuVymO4PZKrSNJSE-20" value="" style="endArrow=none;html=1;rounded=0;fontSize=23;entryX=0.348;entryY=0.993;entryDx=0;entryDy=0;exitX=1;exitY=0;exitDx=0;exitDy=0;entryPerimeter=0;" edge="1" parent="1" source="N56nYuVymO4PZKrSNJSE-15" target="N56nYuVymO4PZKrSNJSE-14">
          <mxGeometry width="50" height="50" relative="1" as="geometry">
            <mxPoint x="750" y="559.58" as="sourcePoint" />
            <mxPoint x="680" y="529.58" as="targetPoint" />
          </mxGeometry>
        </mxCell>
        <mxCell id="N56nYuVymO4PZKrSNJSE-21" value="" style="endArrow=none;html=1;rounded=0;fontSize=23;entryX=0.285;entryY=0.937;entryDx=0;entryDy=0;exitX=1;exitY=0;exitDx=0;exitDy=0;entryPerimeter=0;" edge="1" parent="1" target="N56nYuVymO4PZKrSNJSE-15">
          <mxGeometry width="50" height="50" relative="1" as="geometry">
            <mxPoint x="550.2132034355964" y="642.3667965644034" as="sourcePoint" />
            <mxPoint x="589.8799999999999" y="603.1600000000001" as="targetPoint" />
          </mxGeometry>
        </mxCell>
        <mxCell id="N56nYuVymO4PZKrSNJSE-22" value="" style="endArrow=none;html=1;rounded=0;fontSize=23;entryX=0.5;entryY=1;entryDx=0;entryDy=0;exitX=0.5;exitY=0;exitDx=0;exitDy=0;" edge="1" parent="1" source="N56nYuVymO4PZKrSNJSE-18">
          <mxGeometry width="50" height="50" relative="1" as="geometry">
            <mxPoint x="680" y="639.58" as="sourcePoint" />
            <mxPoint x="610" y="609.58" as="targetPoint" />
          </mxGeometry>
        </mxCell>
        <mxCell id="N56nYuVymO4PZKrSNJSE-23" value="&lt;font style=&quot;font-size: 23px&quot;&gt;15&lt;br&gt;&lt;/font&gt;" style="ellipse;whiteSpace=wrap;html=1;aspect=fixed;fontSize=12;" vertex="1" parent="1">
          <mxGeometry x="684" y="640" width="60" height="60" as="geometry" />
        </mxCell>
        <mxCell id="N56nYuVymO4PZKrSNJSE-24" value="" style="endArrow=none;html=1;rounded=0;fontSize=23;entryX=0.5;entryY=1;entryDx=0;entryDy=0;exitX=0.5;exitY=0;exitDx=0;exitDy=0;" edge="1" parent="1" source="N56nYuVymO4PZKrSNJSE-23" target="N56nYuVymO4PZKrSNJSE-16">
          <mxGeometry width="50" height="50" relative="1" as="geometry">
            <mxPoint x="864" y="650" as="sourcePoint" />
            <mxPoint x="774.8800000000001" y="609.58" as="targetPoint" />
          </mxGeometry>
        </mxCell>
        <mxCell id="N56nYuVymO4PZKrSNJSE-27" value="&lt;font style=&quot;font-size: 23px&quot;&gt;18&lt;/font&gt;" style="ellipse;whiteSpace=wrap;html=1;aspect=fixed;fontSize=12;" vertex="1" parent="1">
          <mxGeometry x="930" y="460" width="60" height="60" as="geometry" />
        </mxCell>
        <mxCell id="N56nYuVymO4PZKrSNJSE-28" value="&lt;font style=&quot;font-size: 23px&quot;&gt;17&lt;/font&gt;" style="ellipse;whiteSpace=wrap;html=1;aspect=fixed;fontSize=12;" vertex="1" parent="1">
          <mxGeometry x="860" y="550" width="60" height="60" as="geometry" />
        </mxCell>
        <mxCell id="N56nYuVymO4PZKrSNJSE-29" value="&lt;font&gt;&lt;font style=&quot;font-size: 23px&quot;&gt;16&lt;/font&gt;&lt;br&gt;&lt;/font&gt;" style="ellipse;whiteSpace=wrap;html=1;aspect=fixed;fontSize=12;" vertex="1" parent="1">
          <mxGeometry x="995" y="550" width="60" height="60" as="geometry" />
        </mxCell>
        <mxCell id="N56nYuVymO4PZKrSNJSE-30" value="&lt;font style=&quot;font-size: 23px&quot;&gt;12&lt;/font&gt;" style="ellipse;whiteSpace=wrap;html=1;aspect=fixed;fontSize=12;" vertex="1" parent="1">
          <mxGeometry x="800" y="640" width="60" height="60" as="geometry" />
        </mxCell>
        <mxCell id="N56nYuVymO4PZKrSNJSE-31" value="&lt;font style=&quot;font-size: 23px&quot;&gt;14&lt;/font&gt;" style="ellipse;whiteSpace=wrap;html=1;aspect=fixed;fontSize=12;" vertex="1" parent="1">
          <mxGeometry x="890" y="640" width="60" height="60" as="geometry" />
        </mxCell>
        <mxCell id="N56nYuVymO4PZKrSNJSE-32" value="" style="endArrow=none;html=1;rounded=0;fontSize=23;entryX=0.5;entryY=1;entryDx=0;entryDy=0;" edge="1" parent="1" target="N56nYuVymO4PZKrSNJSE-27">
          <mxGeometry width="50" height="50" relative="1" as="geometry">
            <mxPoint x="1030" y="549.9999999999999" as="sourcePoint" />
            <mxPoint x="1080" y="500" as="targetPoint" />
          </mxGeometry>
        </mxCell>
        <mxCell id="N56nYuVymO4PZKrSNJSE-33" value="" style="endArrow=none;html=1;rounded=0;fontSize=23;entryX=0.348;entryY=0.993;entryDx=0;entryDy=0;exitX=1;exitY=0;exitDx=0;exitDy=0;entryPerimeter=0;" edge="1" parent="1" source="N56nYuVymO4PZKrSNJSE-28" target="N56nYuVymO4PZKrSNJSE-27">
          <mxGeometry width="50" height="50" relative="1" as="geometry">
            <mxPoint x="1040" y="560" as="sourcePoint" />
            <mxPoint x="970" y="530" as="targetPoint" />
          </mxGeometry>
        </mxCell>
        <mxCell id="N56nYuVymO4PZKrSNJSE-34" value="" style="endArrow=none;html=1;rounded=0;fontSize=23;entryX=0.285;entryY=0.937;entryDx=0;entryDy=0;exitX=1;exitY=0;exitDx=0;exitDy=0;entryPerimeter=0;" edge="1" parent="1" target="N56nYuVymO4PZKrSNJSE-28">
          <mxGeometry width="50" height="50" relative="1" as="geometry">
            <mxPoint x="840.2132034355964" y="642.7867965644035" as="sourcePoint" />
            <mxPoint x="879.8799999999999" y="603.58" as="targetPoint" />
          </mxGeometry>
        </mxCell>
        <mxCell id="N56nYuVymO4PZKrSNJSE-35" value="" style="endArrow=none;html=1;rounded=0;fontSize=23;entryX=0.5;entryY=1;entryDx=0;entryDy=0;exitX=0.5;exitY=0;exitDx=0;exitDy=0;" edge="1" parent="1" source="N56nYuVymO4PZKrSNJSE-31">
          <mxGeometry width="50" height="50" relative="1" as="geometry">
            <mxPoint x="970" y="640" as="sourcePoint" />
            <mxPoint x="900" y="609.9999999999999" as="targetPoint" />
          </mxGeometry>
        </mxCell>
        <mxCell id="N56nYuVymO4PZKrSNJSE-36" value="&lt;font style=&quot;font-size: 23px&quot;&gt;15&lt;br&gt;&lt;/font&gt;" style="ellipse;whiteSpace=wrap;html=1;aspect=fixed;fontSize=12;" vertex="1" parent="1">
          <mxGeometry x="974" y="640.42" width="60" height="60" as="geometry" />
        </mxCell>
        <mxCell id="N56nYuVymO4PZKrSNJSE-37" value="" style="endArrow=none;html=1;rounded=0;fontSize=23;entryX=0.5;entryY=1;entryDx=0;entryDy=0;exitX=0.5;exitY=0;exitDx=0;exitDy=0;" edge="1" parent="1" source="N56nYuVymO4PZKrSNJSE-36" target="N56nYuVymO4PZKrSNJSE-29">
          <mxGeometry width="50" height="50" relative="1" as="geometry">
            <mxPoint x="1154" y="650.42" as="sourcePoint" />
            <mxPoint x="1064.88" y="610" as="targetPoint" />
          </mxGeometry>
        </mxCell>
      </root>
    </mxGraphModel>
  </diagram>
</mxfile>
